<svg width="26" height="26" viewBox="0 0 26 26" fill="none" xmlns="http://www.w3.org/2000/svg">
<path d="M20.2222 23.1111V10.5603L21.6652 9.72689C22.1053 9.47351 22.4707 9.1085 22.7245 8.66874C22.9784 8.22897 23.1118 7.73001 23.1111 7.22222V5.77778C23.1111 5.0116 22.8067 4.2768 22.265 3.73502C21.7232 3.19325 20.9884 2.88889 20.2222 2.88889H5.77778C5.0116 2.88889 4.2768 3.19325 3.73503 3.73502C3.19325 4.2768 2.88889 5.0116 2.88889 5.77778V7.22222C2.88889 8.26656 3.44644 9.21122 4.33478 9.72689L5.77778 10.5589V23.1111H20.2222ZM23.1111 23.1111C23.1111 23.8773 22.8067 24.6121 22.265 25.1539C21.7232 25.6956 20.9884 26 20.2222 26H5.77778C5.0116 26 4.2768 25.6956 3.73503 25.1539C3.19325 24.6121 2.88889 23.8773 2.88889 23.1111V12.2272C2.01017 11.7202 1.28051 10.9907 0.773364 10.1121C0.266218 9.23344 -0.000520179 8.23671 7.61589e-07 7.22222V5.77778C7.61589e-07 4.24542 0.608729 2.77582 1.69227 1.69227C2.77582 0.608728 4.24542 0 5.77778 0H20.2222C21.7546 0 23.2242 0.608728 24.3077 1.69227C25.3913 2.77582 26 4.24542 26 5.77778V7.22222C26 9.36 24.8387 11.2277 23.1111 12.2272V23.1111Z" fill="#00987F"/>
</svg>
