<svg width="25" height="27" viewBox="0 0 25 27" fill="none" xmlns="http://www.w3.org/2000/svg">
<path d="M0.779734 15.6991C1.11598 11.4697 4.27289 7.85741 8.65529 6.48991C8.79941 6.77074 8.96733 7.039 9.15744 7.2916L9.15909 7.29378C9.97856 8.37438 11.1835 9.03756 12.4783 9.03756C13.7729 9.03756 14.9754 8.37696 15.7973 7.29398L15.7991 7.29161C15.9917 7.03568 16.1616 6.76368 16.307 6.47884C20.7079 7.83768 23.8829 11.4581 24.2203 15.6991H23.8749C23.7805 14.5186 23.4572 13.3656 22.9206 12.3069L21.5176 12.8C21.6289 13.3303 21.685 13.8709 21.6851 14.4131L0.779734 15.6991ZM0.779734 15.6991H1.12561M0.779734 15.6991H1.12561M1.12561 15.6991C1.22055 14.5186 1.54435 13.3657 2.08139 12.3072L3.4843 12.8003C3.37304 13.3315 3.31691 13.873 3.31683 14.4161L1.12561 15.6991ZM21.6851 14.4132C21.6851 16.945 21.3685 19.0164 20.1549 20.4713C18.9654 21.8974 16.753 22.9104 12.501 22.9104C8.51756 22.9104 6.28665 21.9059 5.02569 20.4603C3.7472 18.9945 3.31684 16.9109 3.31683 14.4162L21.6851 14.4132ZM15.3406 25.2116C16.0026 25.129 16.6344 25.0131 17.2352 24.8631V26.25H15.3406V25.2116ZM9.96964 25.2318V26.25H8.07508V24.8945C8.66247 25.0411 9.29449 25.153 9.96964 25.2318ZM10.4465 3.66264C10.4465 2.80007 10.7129 2.04726 11.1085 1.52636C11.5036 1.00599 11.9948 0.75 12.4776 0.75C12.9606 0.75 13.4517 1.006 13.8469 1.52636C14.2424 2.04726 14.5088 2.80008 14.5088 3.66264C14.5088 4.52523 14.2424 5.27806 13.8469 5.79896C13.4517 6.31933 12.9606 6.57533 12.4776 6.57533C11.9948 6.57533 11.5036 6.31934 11.1085 5.79897C10.7129 5.27807 10.4465 4.52523 10.4465 3.66264Z" stroke="#00987F" stroke-width="1.5"/>
</svg>
