<svg width="27" height="27" viewBox="0 0 27 27" fill="none" xmlns="http://www.w3.org/2000/svg">
<path d="M13.5 19.75C16.9518 19.75 19.75 16.9518 19.75 13.5C19.75 10.0482 16.9518 7.25 13.5 7.25C10.0482 7.25 7.25 10.0482 7.25 13.5C7.25 16.9518 10.0482 19.75 13.5 19.75Z" stroke="#00987F" stroke-width="2" stroke-linecap="round" stroke-linejoin="round"/>
<path d="M26 13.5C26 15.1456 25.6825 16.7162 25.1044 18.155C24.5194 19.6119 22.5238 18.1994 20.5131 20.3556C18.5031 22.5119 20.0694 24.2725 18.5106 24.9556C16.9307 25.6468 15.2245 26.0025 13.5 26C6.59625 26 1 20.4037 1 13.5C1 6.59625 6.59625 1 13.5 1C20.4037 1 26 6.59625 26 13.5Z" stroke="#00987F" stroke-width="2"/>
<path d="M11 14.125C11 14.125 11.1312 14.8812 11.625 15.375C12.1188 15.8688 12.875 16 12.875 16" stroke="#00987F" stroke-width="2" stroke-linecap="round"/>
</svg>
