<svg width="23" height="29" viewBox="0 0 23 29" fill="none" xmlns="http://www.w3.org/2000/svg">
<path d="M3.12937 14.5C3.72825 18.2968 4.56894 23.6267 4.99253 26.3123C5.14589 27.2845 5.98374 28 6.96801 28H15.8943C16.8745 28 17.7102 27.2906 17.868 26.3232C18.3056 23.6411 19.1768 18.302 19.7972 14.5M3.12937 14.5C2.57368 10.977 1.80981 6.13409 1.36412 3.30846C1.17266 2.09463 2.11135 1 3.34019 1H19.6472C20.8803 1 21.8202 2.102 21.6216 3.31903C21.1603 6.14615 20.3713 10.9814 19.7972 14.5M3.12937 14.5C10.6923 19.3481 10.8392 11.2928 19.7972 14.5" stroke="#00987F" stroke-width="2"/>
</svg>
